# xmcd
#
# Track frame offsets:
#	150
#	11918
#	24083
#	42743
#	62618
#	74183
#	89868
#	110585
#	126238
#	137850
#	149105
#	163080
#	177225
#	190455
#	209025
#	222753
#	242700
#	255118
#	269193
#	282570
#	296055
#	312273
#
# Disc length: 4304 seconds
#
# Revision: 4
# Processed by: cddbd v1.4PL0 Copyright (c) Steve Scherf et al.
# Submitted via: MusicWizard 6.0.2
#
DISCID=7b10ce16
DTITLE=Frank Sinatra - The Complete Reprise Studio Recordings  Disc 5
DYEAR=1995
DGENRE=Vocal
TTITLE0=Nice Work If You Can Get It
TTITLE1=Please Be Kind
TTITLE2=I Won't Dance
TTITLE3=Learnin' The Blues
TTITLE4=I'm Gonna Sit Right Down And Write Myself A Letter
TTITLE5=I Only Have Eyes For You
TTITLE6=My Kind Of Girl
TTITLE7=Pennies From Heaven
TTITLE8=(Love Is) The Tender Trap
TTITLE9=Looking At The World Thru Rose Colored Glasses
TTITLE10=Me And My Shadow
TTITLE11=Come Blow Your Horn
TTITLE12=Call Me Irresponsible
TTITLE13=Lost In The Stars
TTITLE14=My Heart Stood Still
TTITLE15=Ol' Man River
TTITLE16=This Nearly Was Mine
TTITLE17=You'll Never Walk Alone
TTITLE18=I Have Dreamed
TTITLE19=Bewitched
TTITLE20=California
TTITLE21=America The Beautiful
EXTD=YEAR: 1995
EXTT0=
EXTT1=
EXTT2=
EXTT3=
EXTT4=
EXTT5=
EXTT6=
EXTT7=
EXTT8=
EXTT9=
EXTT10=
EXTT11=
EXTT12=
EXTT13=
EXTT14=
EXTT15=
EXTT16=
EXTT17=
EXTT18=
EXTT19=
EXTT20=
EXTT21=
PLAYORDER=
